<svg width="512" height="160" viewBox="0 0 512 160" fill="none" xmlns="http://www.w3.org/2000/svg">
  <rect x="8" y="16" width="128" height="128" rx="28" fill="#0F172A"/>
  <path d="M40 54C40 48.4772 44.4772 44 50 44H94C99.5228 44 104 48.4772 104 54V58C104 63.5228 99.5228 68 94 68H50C44.4772 68 40 63.5228 40 58V54Z" fill="#F8FAFC"/>
  <path d="M32 76C32 70.4772 36.4772 66 42 66H86C91.5228 66 96 70.4772 96 76V80C96 85.5228 91.5228 90 86 90H42C36.4772 90 32 85.5228 32 80V76Z" fill="#CBD5E1"/>
  <path d="M48 98C48 92.4772 52.4772 88 58 88H102C107.523 88 112 92.4772 112 98V102C112 107.523 107.523 112 102 112H58C52.4772 112 48 107.523 48 102V98Z" fill="#94A3B8"/>
  <path d="M176.352 64.816V54.128H257.888V64.816H222.144V117H211.968V64.816H176.352ZM270.461 117V54.128H310.013C319.165 54.128 326.293 56.48 331.397 61.184C336.501 65.888 339.053 72.32 339.053 80.48C339.053 88.64 336.501 95.072 331.397 99.776C326.293 104.48 319.165 106.832 310.013 106.832H280.637V117H270.461ZM280.637 96.144H308.989C315.037 96.144 319.669 94.8 322.885 92.112C326.101 89.424 327.709 85.5467 327.709 80.48C327.709 75.4133 326.101 71.536 322.885 68.848C319.669 66.16 315.037 64.816 308.989 64.816H280.637V96.144ZM347.721 117L377.865 54.128H390.753L420.897 117H409.809L402.225 100.616H366.393L358.809 117H347.721ZM370.617 91.208H398.001L384.345 61.832L370.617 91.208ZM430.493 117V54.128H475.517C484.157 54.128 490.933 56.2987 495.845 60.64C500.757 64.944 503.213 70.7653 503.213 78.104C503.213 83.848 501.653 88.7333 498.533 92.76C495.413 96.7493 491.061 99.5413 485.477 101.136L504.909 117H489.621L472.677 102.376H440.669V117H430.493ZM440.669 92.016H473.677C479.149 92.016 483.333 90.8107 486.229 88.4C489.125 85.952 490.573 82.52 490.573 78.104C490.573 73.688 489.125 70.2747 486.229 67.864C483.333 65.416 479.149 64.192 473.677 64.192H440.669V92.016Z" fill="#0F172A"/>
</svg>
