<svg width="128" height="128" viewBox="0 0 128 128" fill="none" xmlns="http://www.w3.org/2000/svg">
  <rect width="128" height="128" rx="28" fill="#0F172A"/>
  <path d="M32 38C32 32.4772 36.4772 28 42 28H86C91.5228 28 96 32.4772 96 38V42C96 47.5228 91.5228 52 86 52H42C36.4772 52 32 47.5228 32 42V38Z" fill="#F8FAFC"/>
  <path d="M24 60C24 54.4772 28.4772 50 34 50H78C83.5228 50 88 54.4772 88 60V64C88 69.5228 83.5228 74 78 74H34C28.4772 74 24 69.5228 24 64V60Z" fill="#CBD5E1"/>
  <path d="M40 82C40 76.4772 44.4772 72 50 72H94C99.5228 72 104 76.4772 104 82V86C104 91.5228 99.5228 96 94 96H50C44.4772 96 40 91.5228 40 86V82Z" fill="#94A3B8"/>
</svg>
